<svg xmlns="http://www.w3.org/2000/svg" viewBox="0 0 1254.46 1080">
<g id="poly2" data-name="poly2">
<polygon points="0 1080 59.04 1020.96 273.21 1020.96 285.66 1033.41 333.57 985.5 388.07 985.5 398.32 995.75 542.57 995.75 557.45 1010.63 602.07 966 757.77 966 762.92 971.15 767.09 966.98 853.57 966.98 881.31 939.24 954.57 1012.5 1126.57 1012.5 1187.57 951.5 1187.57 851.5 1176.57 840.5 1210.07 807 1210.07 772.5 1214.32 768.25 1209.88 763.8 1209.88 741.5 1202.22 733.85 1209.57 726.5 1209.57 614.5 1145.57 550.5 1145.57 433.5 1208.98 370.09 1208.98 237.7 1225.37 221.3 1201.07 197 1201.07 145.5 1130.82 75.25 1130.82 0 1254.46 0 1254.46 1080 0 1080"/>
</g>
</svg>