<?xml version="1.0" encoding="UTF-8"?>
<svg xmlns="http://www.w3.org/2000/svg" xmlns:xlink="http://www.w3.org/1999/xlink" width="24px" height="px" viewBox="0 0 24 24" version="1.1">
<g id="surface1">
<path style=" stroke:none;fill-rule:nonzero;fill:rgb(0%,0%,0%);fill-opacity:1;" d="M 10.988281 0.269531 C 8.039062 0.574219 5.53125 1.777344 3.53125 3.847656 C 1.410156 6.046875 0.238281 8.945312 0.238281 12 C 0.238281 13.308594 0.425781 14.445312 0.851562 15.722656 C 2.316406 20.144531 6.285156 23.285156 10.941406 23.71875 C 11.710938 23.789062 13.011719 23.757812 13.722656 23.644531 C 18.871094 22.855469 22.859375 18.867188 23.648438 13.71875 C 23.761719 13.007812 23.792969 11.707031 23.722656 10.9375 C 23.289062 6.28125 20.148438 2.3125 15.726562 0.847656 C 14.832031 0.550781 14.226562 0.414062 13.328125 0.308594 C 12.773438 0.246094 11.449219 0.222656 10.988281 0.269531 Z M 13.433594 1.570312 C 17.660156 2.132812 21.175781 5.289062 22.21875 9.449219 C 22.617188 11.039062 22.632812 12.789062 22.257812 14.398438 C 21.941406 15.777344 21.222656 17.28125 20.335938 18.425781 C 19.984375 18.878906 19.378906 19.554688 19.320312 19.554688 C 19.300781 19.554688 19.257812 19.394531 19.230469 19.195312 C 18.933594 17.300781 17.558594 15.527344 15.636719 14.546875 C 14.867188 14.15625 14.117188 13.914062 13.21875 13.761719 C 12.300781 13.613281 11.703125 13.613281 10.78125 13.769531 C 8.335938 14.175781 6.34375 15.546875 5.347656 17.5 C 5.085938 18.007812 4.859375 18.691406 4.78125 19.195312 C 4.753906 19.394531 4.707031 19.554688 4.691406 19.554688 C 4.671875 19.554688 4.519531 19.410156 4.355469 19.230469 C 2.839844 17.613281 1.875 15.601562 1.566406 13.429688 C 1.460938 12.675781 1.460938 11.304688 1.566406 10.574219 C 1.910156 8.234375 2.917969 6.214844 4.570312 4.5625 C 6.925781 2.210938 10.117188 1.132812 13.433594 1.570312 Z M 13.371094 15.050781 C 15.980469 15.597656 17.898438 17.539062 18.042969 19.773438 L 18.070312 20.210938 L 17.734375 20.484375 C 16.707031 21.3125 15.480469 21.925781 14.226562 22.246094 C 12.832031 22.597656 11.175781 22.597656 9.78125 22.246094 C 8.519531 21.925781 7.285156 21.300781 6.273438 20.484375 L 5.9375 20.210938 L 5.96875 19.773438 C 6.128906 17.359375 8.292969 15.355469 11.183594 14.953125 C 11.675781 14.886719 12.832031 14.933594 13.371094 15.050781 Z M 13.371094 15.050781 "/>
<path style=" stroke:none;fill-rule:nonzero;fill:rgb(0%,0%,0%);fill-opacity:1;" d="M 11.230469 5.246094 C 10.023438 5.488281 9.082031 6.226562 8.5625 7.324219 C 8.28125 7.925781 8.210938 8.28125 8.214844 9.046875 C 8.214844 9.613281 8.234375 9.757812 8.34375 10.136719 C 8.679688 11.234375 9.34375 12.023438 10.335938 12.484375 C 12.253906 13.386719 14.546875 12.609375 15.421875 10.765625 C 15.699219 10.191406 15.796875 9.738281 15.796875 9.023438 C 15.800781 8.097656 15.585938 7.410156 15.085938 6.703125 C 14.257812 5.542969 12.691406 4.953125 11.230469 5.246094 Z M 12.734375 6.511719 C 13.457031 6.722656 14 7.167969 14.296875 7.789062 C 14.5 8.230469 14.570312 8.542969 14.570312 9.039062 C 14.570312 10.519531 13.480469 11.613281 12.003906 11.613281 C 10.886719 11.613281 9.941406 10.960938 9.578125 9.941406 C 9.449219 9.574219 9.40625 8.867188 9.484375 8.457031 C 9.667969 7.507812 10.363281 6.757812 11.292969 6.503906 C 11.648438 6.414062 12.40625 6.414062 12.734375 6.511719 Z M 12.734375 6.511719 "/>
</g>
</svg>
