<?xml version="1.0" encoding="UTF-8"?>
<svg xmlns="http://www.w3.org/2000/svg" xmlns:xlink="http://www.w3.org/1999/xlink" width="24px" height="24px" viewBox="0 0 24 24" version="1.1">
<g id="surface1">
<path style=" stroke:none;fill-rule:nonzero;fill:rgb(0%,0%,0%);fill-opacity:1;" d="M 6.191406 2.621094 L 6.925781 2.621094 L 6.925781 17.253906 L 6.191406 17.253906 Z M 6.191406 2.621094 "/>
<path style=" stroke:none;fill-rule:nonzero;fill:rgb(0%,0%,0%);fill-opacity:1;" d="M 20.058594 0 L 6.558594 0 C 5.113281 0 3.941406 1.175781 3.941406 2.621094 L 3.941406 21.378906 C 3.941406 22.824219 5.113281 24 6.558594 24 L 20.058594 24 L 20.058594 19.878906 L 19.324219 19.878906 L 19.324219 23.265625 L 6.558594 23.265625 C 5.519531 23.265625 4.675781 22.417969 4.675781 21.378906 C 4.675781 20.34375 5.519531 19.496094 6.558594 19.496094 L 20.058594 19.496094 Z M 19.324219 18.761719 L 6.925781 18.761719 L 6.925781 18.003906 L 6.191406 18.003906 L 6.191406 18.789062 C 5.601562 18.871094 5.070312 19.152344 4.675781 19.5625 L 4.675781 2.621094 C 4.675781 1.707031 5.328125 0.945312 6.191406 0.773438 L 6.191406 1.867188 L 6.925781 1.867188 L 6.925781 0.734375 L 19.324219 0.734375 Z M 19.324219 18.761719 "/>
<path style=" stroke:none;fill-rule:nonzero;fill:rgb(0%,0%,0%);fill-opacity:1;" d="M 6.558594 20.621094 L 6.558594 19.886719 C 5.734375 19.886719 5.066406 20.558594 5.066406 21.378906 C 5.066406 22.203125 5.734375 22.875 6.558594 22.875 L 6.558594 22.136719 C 6.140625 22.136719 5.800781 21.796875 5.800781 21.378906 C 5.800781 20.964844 6.140625 20.621094 6.558594 20.621094 Z M 6.558594 20.621094 "/>
<path style=" stroke:none;fill-rule:nonzero;fill:rgb(0%,0%,0%);fill-opacity:1;" d="M 6.941406 19.878906 L 7.675781 19.878906 L 7.675781 22.882812 L 6.941406 22.882812 Z M 6.941406 19.878906 "/>
<path style=" stroke:none;fill-rule:nonzero;fill:rgb(0%,0%,0%);fill-opacity:1;" d="M 8.058594 19.886719 L 18.941406 19.886719 L 18.941406 20.621094 L 8.058594 20.621094 Z M 8.058594 19.886719 "/>
<path style=" stroke:none;fill-rule:nonzero;fill:rgb(0%,0%,0%);fill-opacity:1;" d="M 8.058594 21.011719 L 18.941406 21.011719 L 18.941406 21.75 L 8.058594 21.75 Z M 8.058594 21.011719 "/>
<path style=" stroke:none;fill-rule:nonzero;fill:rgb(0%,0%,0%);fill-opacity:1;" d="M 8.058594 22.140625 L 18.941406 22.140625 L 18.941406 22.875 L 8.058594 22.875 Z M 8.058594 22.140625 "/>
<path style=" stroke:none;fill-rule:nonzero;fill:rgb(0%,0%,0%);fill-opacity:1;" d="M 11.0625 16.886719 L 15.191406 16.886719 L 15.191406 17.621094 L 11.0625 17.621094 Z M 11.0625 16.886719 "/>
<path style=" stroke:none;fill-rule:nonzero;fill:rgb(0%,0%,0%);fill-opacity:1;" d="M 17.433594 1.875 L 8.816406 1.875 L 8.816406 8.617188 L 17.433594 8.617188 Z M 16.699219 7.878906 L 9.554688 7.878906 L 9.554688 2.613281 L 16.699219 2.613281 Z M 16.699219 7.878906 "/>
<path style=" stroke:none;fill-rule:nonzero;fill:rgb(0%,0%,0%);fill-opacity:1;" d="M 10.3125 3.378906 L 15.941406 3.378906 L 15.941406 4.113281 L 10.3125 4.113281 Z M 10.3125 3.378906 "/>
<path style=" stroke:none;fill-rule:nonzero;fill:rgb(0%,0%,0%);fill-opacity:1;" d="M 10.3125 4.878906 L 14.4375 4.878906 L 14.4375 5.613281 L 10.3125 5.613281 Z M 10.3125 4.878906 "/>
<path style=" stroke:none;fill-rule:nonzero;fill:rgb(0%,0%,0%);fill-opacity:1;" d="M 10.3125 6.378906 L 13.6875 6.378906 L 13.6875 7.113281 L 10.3125 7.113281 Z M 10.3125 6.378906 "/>
</g>
</svg>
