<svg id="Calque_1" data-name="Calque 1" xmlns="http://www.w3.org/2000/svg" xmlns:xlink="http://www.w3.org/1999/xlink" viewBox="0 0 40 483"><defs><style>.cls-1{fill:none;}.cls-2{clip-path:url(#clip-path);}.cls-3{fill:url(#Dégradé_sans_nom);}</style><clipPath id="clip-path"><rect class="cls-1" width="40" height="483"/></clipPath><linearGradient id="Dégradé_sans_nom" x1="286.5" y1="220.01" x2="-238.54" y2="220.01" gradientTransform="translate(-221.5 261.5) rotate(-90)" gradientUnits="userSpaceOnUse"><stop offset="0" stop-color="#00ffd2"/><stop offset="0.34" stop-color="#fcea06"/><stop offset="0.71" stop-color="#e5007d"/></linearGradient></defs><g class="cls-2"><path d="M0,483V20H40V483Z"/><path class="cls-3" d="M59.59,28,51.68,44.83l-114.24-53L-54.65-25Zm-114-24.75-7.44,15.86L51.41,71.59l7.45-15.86L-54.39,3.23Zm.27,28.23-7,14.87L51.14,98.38l7-14.88-112.24-52Zm.27,28.23-6.52,13.88L50.88,125.15l6.52-13.88Zm.27,28.23-6.05,12.89L50.62,151.94,56.67,139-53.58,87.91Zm.27,28.23L-58.89,128,50.37,178.71,56,166.8Zm.27,28.23-5.12,10.91L50.1,205.48l5.12-10.91L-53,144.37Zm.27,28.23-4.66,9.92L49.83,232.27l4.66-9.92L-52.79,172.6Zm.27,28.23-4.2,8.93L49.57,259l4.2-8.92L-52.52,200.83Zm.27,28.23L-56,237,49.31,285.83,53,277.88l-105.3-48.82Zm.26,28.23-3.25,6.95L49.06,312.6l3.25-7L-52,257.29Zm.27,28.23-2.79,6L48.79,339.37l2.79-6L-51.73,285.52Zm.27,28.23-2.33,5L48.52,366.16l2.33-5L-51.46,313.75Zm.27,28.23L-53,346l101.29,47,1.87-4L-51.19,342Zm.27,28.23-1.4,3L48,419.7l1.4-3L-50.93,370.2Zm.27,28.23-.94,2,99.29,46.05.94-2-99.33-46.06Zm.77,28.47-.5-.24-.47,1L47,473l.5.23.48-1L-49.89,426.9Zm-.23,28,0,0L47.19,500l0,0L-50.13,454.9Z"/></g></svg>