<?xml version="1.0" encoding="UTF-8"?>
<svg xmlns="http://www.w3.org/2000/svg" xmlns:xlink="http://www.w3.org/1999/xlink" width="24px" height="24px" viewBox="0 0 24 10" version="1.1">
<g id="surface1">
<path style=" stroke:none;fill-rule:nonzero;fill:rgb(0%,0%,0%);fill-opacity:1;" d="M 7 10 L 5 10 L 5 8 C 5 7.449219 4.550781 7 4 7 C 3.449219 7 3 7.449219 3 8 L 3 10 L 1 10 C 0.449219 10 0 10.449219 0 11 C 0 11.550781 0.449219 12 1 12 L 3 12 L 3 14 C 3 14.550781 3.449219 15 4 15 C 4.550781 15 5 14.550781 5 14 L 5 12 L 7 12 C 7.550781 12 8 11.550781 8 11 C 8 10.449219 7.550781 10 7 10 Z M 18 11 C 19.660156 11 20.988281 9.660156 20.988281 8 C 20.988281 6.339844 19.660156 5 18 5 C 17.679688 5 17.371094 5.050781 17.089844 5.140625 C 17.660156 5.949219 17.988281 6.929688 17.988281 8 C 17.988281 9.070312 17.648438 10.039062 17.089844 10.859375 C 17.371094 10.949219 17.679688 11 18 11 Z M 13 11 C 14.660156 11 15.988281 9.660156 15.988281 8 C 15.988281 6.339844 14.660156 5 13 5 C 11.339844 5 10 6.339844 10 8 C 10 9.660156 11.339844 11 13 11 Z M 13 13 C 11 13 7 14 7 16 L 7 17 C 7 17.550781 7.449219 18 8 18 L 18 18 C 18.550781 18 19 17.550781 19 17 L 19 16 C 19 14 15 13 13 13 Z M 19.621094 13.160156 C 20.449219 13.890625 21 14.820312 21 16 L 21 17.5 C 21 17.671875 20.980469 17.839844 20.949219 18 L 23.5 18 C 23.78125 18 24 17.78125 24 17.5 L 24 16 C 24 14.460938 21.628906 13.511719 19.621094 13.160156 Z M 19.621094 13.160156 "/>
</g>
</svg>
