<?xml version="1.0" encoding="UTF-8"?>
<svg xmlns="http://www.w3.org/2000/svg" xmlns:xlink="http://www.w3.org/1999/xlink" width="24px" height="24px" viewBox="0 0 24 24" version="1.1">
<g id="surface1">
<path style=" stroke:none;fill-rule:nonzero;fill:rgb(0%,0%,0%);fill-opacity:1;" d="M 22.257812 10.066406 L 21.097656 11.613281 L 19.949219 11.613281 L 17.628906 14.324219 L 16.644531 14.324219 L 16.644531 12.941406 L 15.886719 12.488281 L 17.394531 10.332031 C 18.171875 9.222656 18.582031 7.921875 18.582031 6.566406 C 18.582031 2.945312 15.632812 0 11.988281 0 C 8.367188 0 5.417969 2.945312 5.417969 6.566406 C 5.417969 7.863281 5.800781 9.109375 6.511719 10.1875 L 3.195312 9.304688 L 1.726562 9.289062 L 0 11.882812 L 0 18.054688 L 4.257812 19.992188 L 4.257812 21.007812 L 5.96875 24 L 12.105469 24 L 14.042969 22.839844 L 15.097656 22.839844 L 15.097656 21.675781 L 15.367188 21.675781 L 18.851562 24 L 20.515625 24 L 20.515625 21.972656 L 19.773438 20.484375 L 20.019531 19.742188 L 21.449219 19.742188 L 22.839844 18.355469 L 22.839844 14.453125 L 24 12.902344 L 24 10.066406 Z M 6.195312 6.566406 C 6.195312 3.375 8.792969 0.773438 12.011719 0.773438 C 15.207031 0.773438 17.804688 3.375 17.804688 6.566406 C 17.804688 7.761719 17.445312 8.910156 16.757812 9.890625 L 12.902344 15.402344 C 12.695312 15.695312 12.359375 15.871094 12 15.871094 C 11.640625 15.871094 11.304688 15.695312 11.097656 15.402344 L 7.242188 9.890625 C 6.554688 8.910156 6.195312 7.761719 6.195312 6.566406 Z M 9.675781 23.226562 L 6.417969 23.226562 L 5.03125 20.800781 L 5.03125 19.492188 L 0.773438 17.558594 L 0.773438 15.871094 L 7.179688 15.871094 L 9.675781 18.726562 Z M 7.53125 15.097656 L 0.773438 15.097656 L 0.773438 12.117188 L 2.144531 10.066406 L 3.046875 10.066406 L 7.191406 11.171875 L 10.464844 15.847656 C 10.816406 16.347656 11.390625 16.644531 12 16.644531 C 12.609375 16.644531 13.183594 16.347656 13.535156 15.847656 L 15.441406 13.121094 L 15.871094 13.378906 L 15.871094 18.195312 L 10.242188 18.195312 Z M 23.226562 12.644531 L 22.066406 14.195312 L 22.066406 18.035156 L 21.128906 18.96875 L 19.460938 18.96875 L 18.9375 20.546875 L 19.742188 22.15625 L 19.742188 23.226562 L 19.085938 23.226562 L 15.601562 20.902344 L 14.324219 20.902344 L 14.324219 22.066406 L 13.828125 22.066406 L 11.894531 23.226562 L 10.453125 23.226562 L 10.453125 18.96875 L 16.644531 18.96875 L 16.644531 15.097656 L 17.984375 15.097656 L 20.308594 12.386719 L 21.484375 12.386719 L 22.644531 10.839844 L 23.226562 10.839844 Z M 23.226562 12.644531 "/>
<path style=" stroke:none;fill-rule:nonzero;fill:rgb(0%,0%,0%);fill-opacity:1;" d="M 12 11.613281 C 14.773438 11.613281 17.03125 9.355469 17.03125 6.582031 C 17.03125 3.804688 14.773438 1.546875 12 1.546875 C 9.226562 1.546875 6.96875 3.804688 6.96875 6.582031 C 6.96875 9.355469 9.226562 11.613281 12 11.613281 Z M 12 2.324219 C 14.347656 2.324219 16.257812 4.234375 16.257812 6.582031 C 16.257812 8.929688 14.347656 10.839844 12 10.839844 C 9.652344 10.839844 7.742188 8.929688 7.742188 6.582031 C 7.742188 4.234375 9.652344 2.324219 12 2.324219 Z M 12 2.324219 "/>
</g>
</svg>
